<?xml version="1.0" standalone="no"?><!DOCTYPE svg PUBLIC "-//W3C//DTD SVG 1.1//EN" "http://www.w3.org/Graphics/SVG/1.1/DTD/svg11.dtd"><svg t="1531447585799" class="icon" style="" viewBox="0 0 1024 1024" version="1.1" xmlns="http://www.w3.org/2000/svg" p-id="3421" xmlns:xlink="http://www.w3.org/1999/xlink" width="200" height="200"><defs><style type="text/css"></style></defs><path d="M572.288 954.368l-15.104 8.768c-10.048 5.824-21.056 8.576-31.936 8.576-22.08 0-43.584-11.456-55.488-31.936l-32.064-55.424a63.955 63.955 0 0 1-6.4-48.64 63.685 63.685 0 0 1 29.824-38.848l14.464-8.32a278.707 278.707 0 0 1 0-105.024l-14.528-8.32c-30.592-17.664-41.088-56.832-23.424-87.424l32-55.424c8.576-14.784 22.528-25.536 38.912-29.888 5.44-1.472 11.008-2.176 16.576-2.176 11.136 0 22.208 2.88 32 8.576l15.168 8.704c14.656-12.48 30.656-23.104 47.296-32.384-24.832-12.096-53.184-21.696-85.824-27.968V425.6c75.456-36.032 128-112.448 128-201.6 0-123.712-100.288-224-224-224s-224 100.288-224 224c0 89.216 52.544 165.568 128 201.6v31.616C86.656 506.112 85.76 753.152 85.76 896c0 111.616 346.688 144.832 553.408 99.776-23.936-11.008-46.72-24.192-66.88-41.408z" fill="" p-id="3422"></path><path d="M966.272 818.88L1024 852.16l-32 55.488-58.304-33.664c-34.688 43.968-85.056 74.304-143.104 82.688l0.064 67.264-64.064 0.064v-67.328c-57.984-8.384-108.352-38.656-143.04-82.688l-58.304 33.664-32.064-55.424 57.792-33.344c-10.304-25.664-16.32-53.568-16.32-82.944s6.016-57.216 16.256-82.88l-57.792-33.344 32-55.424 58.304 33.664c34.752-44.032 85.12-74.368 143.104-82.752v-67.264h64V515.2c57.984 8.384 108.352 38.656 143.104 82.688l58.24-33.664L1024 619.712l-57.728 33.344c10.304 25.664 16.32 53.568 16.32 82.944s-6.016 57.216-16.32 82.88z m-207.68-212.032c-71.232 0-129.024 57.792-129.024 129.088s57.728 129.088 129.024 129.088c71.296 0 129.088-57.792 129.088-129.088s-57.792-129.088-129.088-129.088z" fill="" p-id="3423"></path></svg>